<mxfile host="app.diagrams.net" modified="2024-06-06T16:50:21.790Z" agent="Mozilla/5.0 (Windows NT 10.0; Win64; x64) AppleWebKit/537.36 (KHTML, like Gecko) Chrome/125.0.0.0 Safari/537.36" etag="ViLbnMPcH-sGW4EmUTs_" version="24.5.1" type="device">
  <diagram id="R2lEEEUBdFMjLlhIrx00" name="Page-1">
    <mxGraphModel dx="1434" dy="756" grid="1" gridSize="10" guides="1" tooltips="1" connect="1" arrows="1" fold="1" page="1" pageScale="1" pageWidth="850" pageHeight="1100" math="0" shadow="0" extFonts="Permanent Marker^https://fonts.googleapis.com/css?family=Permanent+Marker">
      <root>
        <mxCell id="0" />
        <mxCell id="1" parent="0" />
        <mxCell id="vaIkxIb_hiFEB-Fg-ET5-41" value="" style="points=[[0.25,0,0],[0.5,0,0],[0.75,0,0],[1,0.25,0],[1,0.5,0],[1,0.75,0],[0.75,1,0],[0.5,1,0],[0.25,1,0],[0,0.75,0],[0,0.5,0],[0,0.25,0]];shape=mxgraph.bpmn.task;whiteSpace=wrap;rectStyle=rounded;size=10;html=1;container=1;expand=0;collapsible=0;taskMarker=abstract;isLoopStandard=1;" vertex="1" parent="1">
          <mxGeometry x="170" y="370" width="380" height="270" as="geometry" />
        </mxCell>
        <mxCell id="vaIkxIb_hiFEB-Fg-ET5-32" value="Проверка данных" style="text;html=1;align=center;verticalAlign=middle;whiteSpace=wrap;rounded=0;" vertex="1" parent="vaIkxIb_hiFEB-Fg-ET5-41">
          <mxGeometry x="260" width="110" height="30" as="geometry" />
        </mxCell>
        <mxCell id="vaIkxIb_hiFEB-Fg-ET5-1" value="" style="shape=actor;whiteSpace=wrap;html=1;" vertex="1" parent="1">
          <mxGeometry x="220" y="120" width="50" height="60" as="geometry" />
        </mxCell>
        <mxCell id="vaIkxIb_hiFEB-Fg-ET5-2" value="User" style="text;html=1;align=center;verticalAlign=middle;whiteSpace=wrap;rounded=0;" vertex="1" parent="1">
          <mxGeometry x="215" y="90.00000000000023" width="60" height="30" as="geometry" />
        </mxCell>
        <mxCell id="vaIkxIb_hiFEB-Fg-ET5-3" value="" style="rounded=0;whiteSpace=wrap;html=1;rotation=-90;" vertex="1" parent="1">
          <mxGeometry x="12.13" y="430.4" width="465.77" height="10" as="geometry" />
        </mxCell>
        <mxCell id="vaIkxIb_hiFEB-Fg-ET5-12" value="HELP" style="text;html=1;align=center;verticalAlign=middle;whiteSpace=wrap;rounded=0;" vertex="1" parent="1">
          <mxGeometry x="250" y="210.00000000000023" width="60" height="30" as="geometry" />
        </mxCell>
        <mxCell id="vaIkxIb_hiFEB-Fg-ET5-13" value="" style="shape=actor;whiteSpace=wrap;html=1;" vertex="1" parent="1">
          <mxGeometry x="405" y="120" width="50" height="60" as="geometry" />
        </mxCell>
        <mxCell id="vaIkxIb_hiFEB-Fg-ET5-15" value="PROGRAMM" style="text;html=1;align=center;verticalAlign=middle;whiteSpace=wrap;rounded=0;" vertex="1" parent="1">
          <mxGeometry x="380" y="80" width="90" height="30" as="geometry" />
        </mxCell>
        <mxCell id="vaIkxIb_hiFEB-Fg-ET5-16" value="" style="endArrow=none;dashed=1;html=1;dashPattern=1 3;strokeWidth=2;rounded=0;exitX=1;exitY=0.5;exitDx=0;exitDy=0;entryX=0.5;entryY=1;entryDx=0;entryDy=0;" edge="1" parent="1" source="vaIkxIb_hiFEB-Fg-ET5-3" target="vaIkxIb_hiFEB-Fg-ET5-1">
          <mxGeometry width="50" height="50" relative="1" as="geometry">
            <mxPoint x="400" y="210" as="sourcePoint" />
            <mxPoint x="450" y="160" as="targetPoint" />
          </mxGeometry>
        </mxCell>
        <mxCell id="vaIkxIb_hiFEB-Fg-ET5-17" style="edgeStyle=orthogonalEdgeStyle;rounded=0;orthogonalLoop=1;jettySize=auto;html=1;exitX=0.75;exitY=1;exitDx=0;exitDy=0;" edge="1" parent="1" source="vaIkxIb_hiFEB-Fg-ET5-3">
          <mxGeometry relative="1" as="geometry">
            <mxPoint x="250" y="280" as="targetPoint" />
            <Array as="points">
              <mxPoint x="320" y="244" />
              <mxPoint x="320" y="280" />
              <mxPoint x="250" y="280" />
            </Array>
          </mxGeometry>
        </mxCell>
        <mxCell id="vaIkxIb_hiFEB-Fg-ET5-19" value="" style="rounded=0;whiteSpace=wrap;html=1;rotation=-90;" vertex="1" parent="1">
          <mxGeometry x="195.63" y="431.89" width="468.76" height="10" as="geometry" />
        </mxCell>
        <mxCell id="vaIkxIb_hiFEB-Fg-ET5-21" value="" style="endArrow=none;dashed=1;html=1;dashPattern=1 3;strokeWidth=2;rounded=0;entryX=0.5;entryY=1;entryDx=0;entryDy=0;exitX=1;exitY=0.5;exitDx=0;exitDy=0;" edge="1" parent="1" source="vaIkxIb_hiFEB-Fg-ET5-19" target="vaIkxIb_hiFEB-Fg-ET5-13">
          <mxGeometry width="50" height="50" relative="1" as="geometry">
            <mxPoint x="400" y="210" as="sourcePoint" />
            <mxPoint x="450" y="160" as="targetPoint" />
          </mxGeometry>
        </mxCell>
        <mxCell id="vaIkxIb_hiFEB-Fg-ET5-22" value="Решение уравнения" style="text;html=1;align=center;verticalAlign=middle;whiteSpace=wrap;rounded=0;" vertex="1" parent="1">
          <mxGeometry x="275" y="296.25" width="130" height="30" as="geometry" />
        </mxCell>
        <mxCell id="vaIkxIb_hiFEB-Fg-ET5-24" value="Окно с вводом данных" style="text;html=1;align=center;verticalAlign=middle;whiteSpace=wrap;rounded=0;" vertex="1" parent="1">
          <mxGeometry x="265" y="340" width="140" height="30" as="geometry" />
        </mxCell>
        <mxCell id="vaIkxIb_hiFEB-Fg-ET5-25" value="" style="endArrow=classic;html=1;rounded=0;entryX=0.734;entryY=0.299;entryDx=0;entryDy=0;entryPerimeter=0;" edge="1" parent="1" target="vaIkxIb_hiFEB-Fg-ET5-19">
          <mxGeometry width="50" height="50" relative="1" as="geometry">
            <mxPoint x="245" y="324" as="sourcePoint" />
            <mxPoint x="465" y="370" as="targetPoint" />
          </mxGeometry>
        </mxCell>
        <mxCell id="vaIkxIb_hiFEB-Fg-ET5-26" value="" style="endArrow=classic;html=1;rounded=0;entryX=0.706;entryY=1.199;entryDx=0;entryDy=0;entryPerimeter=0;" edge="1" parent="1" target="vaIkxIb_hiFEB-Fg-ET5-3">
          <mxGeometry width="50" height="50" relative="1" as="geometry">
            <mxPoint x="430" y="340" as="sourcePoint" />
            <mxPoint x="465" y="370" as="targetPoint" />
          </mxGeometry>
        </mxCell>
        <mxCell id="vaIkxIb_hiFEB-Fg-ET5-29" value="|Данные верны|" style="text;html=1;align=center;verticalAlign=middle;whiteSpace=wrap;rounded=0;" vertex="1" parent="1">
          <mxGeometry x="282.5" y="404.01" width="105" height="30" as="geometry" />
        </mxCell>
        <mxCell id="vaIkxIb_hiFEB-Fg-ET5-30" value="" style="endArrow=classic;html=1;rounded=0;entryX=0.485;entryY=0.899;entryDx=0;entryDy=0;entryPerimeter=0;" edge="1" parent="1" target="vaIkxIb_hiFEB-Fg-ET5-3">
          <mxGeometry width="50" height="50" relative="1" as="geometry">
            <mxPoint x="420" y="441" as="sourcePoint" />
            <mxPoint x="465" y="370" as="targetPoint" />
          </mxGeometry>
        </mxCell>
        <mxCell id="vaIkxIb_hiFEB-Fg-ET5-31" style="edgeStyle=orthogonalEdgeStyle;rounded=0;orthogonalLoop=1;jettySize=auto;html=1;exitX=0.5;exitY=1;exitDx=0;exitDy=0;" edge="1" parent="1" source="vaIkxIb_hiFEB-Fg-ET5-19">
          <mxGeometry relative="1" as="geometry">
            <mxPoint x="430" y="430" as="targetPoint" />
            <Array as="points">
              <mxPoint x="435" y="400" />
              <mxPoint x="520" y="400" />
              <mxPoint x="520" y="430" />
            </Array>
          </mxGeometry>
        </mxCell>
        <mxCell id="vaIkxIb_hiFEB-Fg-ET5-33" value="" style="endArrow=classic;html=1;rounded=0;exitX=0.387;exitY=0.199;exitDx=0;exitDy=0;exitPerimeter=0;entryX=0.386;entryY=1.299;entryDx=0;entryDy=0;entryPerimeter=0;" edge="1" parent="1" source="vaIkxIb_hiFEB-Fg-ET5-19" target="vaIkxIb_hiFEB-Fg-ET5-3">
          <mxGeometry width="50" height="50" relative="1" as="geometry">
            <mxPoint x="370" y="406" as="sourcePoint" />
            <mxPoint x="465" y="370" as="targetPoint" />
          </mxGeometry>
        </mxCell>
        <mxCell id="vaIkxIb_hiFEB-Fg-ET5-34" value="Решение уравнения" style="text;html=1;align=center;verticalAlign=middle;whiteSpace=wrap;rounded=0;" vertex="1" parent="1">
          <mxGeometry x="270" y="450" width="127.5" height="30" as="geometry" />
        </mxCell>
        <mxCell id="vaIkxIb_hiFEB-Fg-ET5-36" value="" style="endArrow=none;dashed=1;html=1;dashPattern=1 3;strokeWidth=2;rounded=0;exitX=1;exitY=0.5;exitDx=0;exitDy=0;exitPerimeter=0;entryX=0;entryY=0.5;entryDx=0;entryDy=0;entryPerimeter=0;" edge="1" parent="1" source="vaIkxIb_hiFEB-Fg-ET5-41" target="vaIkxIb_hiFEB-Fg-ET5-41">
          <mxGeometry width="50" height="50" relative="1" as="geometry">
            <mxPoint x="480" y="500" as="sourcePoint" />
            <mxPoint x="170" y="500" as="targetPoint" />
          </mxGeometry>
        </mxCell>
        <mxCell id="vaIkxIb_hiFEB-Fg-ET5-37" value="" style="endArrow=classic;html=1;rounded=0;exitX=0.225;exitY=0.499;exitDx=0;exitDy=0;exitPerimeter=0;entryX=0.226;entryY=1.199;entryDx=0;entryDy=0;entryPerimeter=0;" edge="1" parent="1">
          <mxGeometry width="50" height="50" relative="1" as="geometry">
            <mxPoint x="429" y="540.0025000000002" as="sourcePoint" />
            <mxPoint x="251.00499999999988" y="541.98926" as="targetPoint" />
          </mxGeometry>
        </mxCell>
        <mxCell id="vaIkxIb_hiFEB-Fg-ET5-38" value="|Данные неверны|" style="text;html=1;align=center;verticalAlign=middle;whiteSpace=wrap;rounded=0;" vertex="1" parent="1">
          <mxGeometry x="275" y="510" width="115" height="30" as="geometry" />
        </mxCell>
        <mxCell id="vaIkxIb_hiFEB-Fg-ET5-39" value="" style="endArrow=classic;html=1;rounded=0;exitX=0.106;exitY=0.099;exitDx=0;exitDy=0;exitPerimeter=0;entryX=0.11;entryY=1.199;entryDx=0;entryDy=0;entryPerimeter=0;" edge="1" parent="1" source="vaIkxIb_hiFEB-Fg-ET5-19" target="vaIkxIb_hiFEB-Fg-ET5-3">
          <mxGeometry width="50" height="50" relative="1" as="geometry">
            <mxPoint x="275" y="636" as="sourcePoint" />
            <mxPoint x="250" y="560" as="targetPoint" />
          </mxGeometry>
        </mxCell>
        <mxCell id="vaIkxIb_hiFEB-Fg-ET5-40" value="Вывод ошибки, попытка повторого ввода" style="text;html=1;align=center;verticalAlign=middle;whiteSpace=wrap;rounded=0;" vertex="1" parent="1">
          <mxGeometry x="241.25" y="580" width="182.5" height="30" as="geometry" />
        </mxCell>
        <mxCell id="vaIkxIb_hiFEB-Fg-ET5-42" value="" style="endArrow=classic;html=1;rounded=0;exitX=0.022;exitY=1.098;exitDx=0;exitDy=0;exitPerimeter=0;entryX=0.024;entryY=0.299;entryDx=0;entryDy=0;entryPerimeter=0;" edge="1" parent="1" source="vaIkxIb_hiFEB-Fg-ET5-3" target="vaIkxIb_hiFEB-Fg-ET5-19">
          <mxGeometry width="50" height="50" relative="1" as="geometry">
            <mxPoint x="282.5" y="726" as="sourcePoint" />
            <mxPoint x="377.5" y="690" as="targetPoint" />
          </mxGeometry>
        </mxCell>
        <mxCell id="vaIkxIb_hiFEB-Fg-ET5-43" value="Выход" style="text;html=1;align=center;verticalAlign=middle;whiteSpace=wrap;rounded=0;" vertex="1" parent="1">
          <mxGeometry x="300" y="660.0000000000002" width="60" height="30" as="geometry" />
        </mxCell>
        <mxCell id="vaIkxIb_hiFEB-Fg-ET5-44" value="" style="endArrow=none;html=1;rounded=0;" edge="1" parent="1">
          <mxGeometry width="50" height="50" relative="1" as="geometry">
            <mxPoint x="230" y="720" as="sourcePoint" />
            <mxPoint x="260" y="680" as="targetPoint" />
          </mxGeometry>
        </mxCell>
        <mxCell id="vaIkxIb_hiFEB-Fg-ET5-45" value="" style="endArrow=none;html=1;rounded=0;" edge="1" parent="1">
          <mxGeometry width="50" height="50" relative="1" as="geometry">
            <mxPoint x="260" y="720" as="sourcePoint" />
            <mxPoint x="230" y="680" as="targetPoint" />
          </mxGeometry>
        </mxCell>
        <mxCell id="vaIkxIb_hiFEB-Fg-ET5-46" value="" style="endArrow=none;html=1;rounded=0;" edge="1" parent="1">
          <mxGeometry width="50" height="50" relative="1" as="geometry">
            <mxPoint x="415" y="720" as="sourcePoint" />
            <mxPoint x="445" y="680" as="targetPoint" />
          </mxGeometry>
        </mxCell>
        <mxCell id="vaIkxIb_hiFEB-Fg-ET5-47" value="" style="endArrow=none;html=1;rounded=0;" edge="1" parent="1">
          <mxGeometry width="50" height="50" relative="1" as="geometry">
            <mxPoint x="445" y="720" as="sourcePoint" />
            <mxPoint x="415" y="680" as="targetPoint" />
          </mxGeometry>
        </mxCell>
      </root>
    </mxGraphModel>
  </diagram>
</mxfile>
